<?xml version="1.0" encoding="utf-8"?>
<!-- Generator: Adobe Illustrator 19.2.1, SVG Export Plug-In . SVG Version: 6.00 Build 0)  -->
<svg version="1.1" id="Layer_1" xmlns="http://www.w3.org/2000/svg" xmlns:xlink="http://www.w3.org/1999/xlink" x="0px" y="0px"
	 viewBox="0 0 76.8 71.2" style="enable-background:new 0 0 76.8 71.2;" xml:space="preserve">
<style type="text/css">
	.st0{fill:#F9ED32;}
	.st1{fill:#FBB040;}
</style>
<g>
	<g>
		<path class="st0" d="M40.8,63.5l0.3-12l0.1-0.1L67.3,2.7c0.5-0.9,1.3-1.6,2.3-1.8c1-0.3,2-0.2,2.9,0.3l1.1,0.6
			C74.5,2.2,75.2,3,75.5,4c0.3,1,0.2,2-0.3,3L57.8,38.9c-0.1,0.2-0.4,0.3-0.7,0.2c-0.2-0.1-0.3-0.4-0.2-0.7L74.3,6.5
			c0.4-0.7,0.4-1.5,0.2-2.2c-0.2-0.7-0.7-1.4-1.4-1.7L72,2c-0.7-0.4-1.4-0.4-2.2-0.2c-0.7,0.2-1.3,0.7-1.7,1.4L42,51.7l-0.2,9.4
			l6.4-6.1c0.2-0.2,0.5-0.2,0.7,0c0.2,0.2,0.2,0.5,0,0.7L40.8,63.5z"/>
		<path class="st1" d="M40.5,63.7l0-0.2l0.3-12l0-0.1l0,0L65.6,5.6l1.5-2.9c0.5-1,1.5-1.8,2.6-2.1c1.1-0.3,2.3,0,3.2,0.6
			c0.5,0.3,1,0.5,1.4,0.9c0.4,0.4,0.8,0.8,1,1.3c0.5,1,0.5,2.3,0.1,3.3c-0.5,1-1,1.9-1.5,2.9l-3.1,5.7L58.4,38.1L58,38.9
			c-0.1,0.3-0.5,0.5-0.8,0.3c-0.3-0.1-0.5-0.6-0.3-0.9l0.4-0.7l1.6-2.9l3.1-5.7l6.2-11.4c2.1-3.8,4.2-7.6,6.2-11.4
			c0.4-1,0.2-2.2-0.6-2.9c-0.3-0.4-0.8-0.6-1.3-0.9C72,2.1,71.6,1.8,71,1.8c-1-0.1-2.2,0.4-2.7,1.3l-1.5,2.9L42,51.7l0,0l-0.2,9.4
			l0,0l3.9-3.7l2-1.9l0.5-0.5c0.1-0.2,0.4-0.2,0.6-0.1c0.2,0.1,0.3,0.4,0.3,0.6c-0.1,0.2-0.3,0.3-0.4,0.5l-7.8,7.4L40.5,63.7z
			 M41,63.2l7.6-7.2c0.1-0.2,0.4-0.3,0.4-0.5c0.1-0.2,0-0.5-0.2-0.6c-0.2-0.1-0.5,0-0.6,0.1l-0.5,0.5l-2,1.9l-3.9,3.7l0,0l0-0.1
			l0.2-9.4l0,0l0,0L66.6,5.9L68.2,3c0.6-1,1.7-1.5,2.9-1.4c0.6,0.1,1.1,0.3,1.5,0.6c0.5,0.3,1,0.5,1.4,0.9c0.8,0.8,1,2.1,0.6,3.1
			c-2,3.9-4.1,7.6-6.2,11.5l-6.2,11.4L59,34.9l-1.6,2.9l-0.4,0.7c-0.1,0.2,0,0.4,0.2,0.5c0.4,0.2,0.6-0.5,0.9-0.9l12.4-22.9l3.1-5.7
			c0.5-1,1.1-1.9,1.5-2.9c0.4-1,0.4-2.1-0.1-3c-0.2-0.5-0.5-0.9-0.9-1.2c-0.4-0.3-0.9-0.6-1.4-0.8c-0.9-0.6-2-0.8-3-0.5
			c-2.2,0.5-2.8,3-3.9,4.7L41.2,51.6l0-0.1L41,63.2z"/>
	</g>
	<g>
		<path class="st0" d="M41.7,62.6c-3.1,4.1-9.4,7.5-14.4,7.9c-1.7,0.1-3.3-0.1-4.5-0.9c-2.4-1.4-4.5-5.1-0.3-14.6
			c3.4-7.7,5.1-16.1,4.9-23.5C27.2,25,25.6,20.1,23,18.9c-2.5-1.2-5.5,1.1-8.7,6.5C2.8,45.2,1.9,44.9,1.5,44.8
			c-0.3-0.1-0.4-0.4-0.3-0.6c0-0.1,0.2-0.2,0.3-0.3c0.3-0.2,2.2-2.2,12-19c4.6-8,8.2-7.7,10-6.8c2.9,1.5,4.7,6.5,4.9,13.5
			c0.2,7.6-1.6,16.1-5,23.9c-3,6.9-3,11.7-0.1,13.4C27.6,71.3,37,67,40.9,62"/>
		<path class="st1" d="M41.9,62.7c-1.5,1.9-3.3,3.4-5.3,4.6c-2,1.2-4.2,2.2-6.4,2.8c-2.3,0.6-4.8,0.8-7-0.2c-1.1-0.5-2-1.4-2.5-2.5
			c-0.5-1.1-0.7-2.3-0.7-3.5c0-2.4,0.7-4.7,1.5-6.9c0.8-2.2,1.8-4.3,2.6-6.5c1.5-4.4,2.6-8.9,3-13.6c0.2-2.3,0.3-4.6,0.2-7
			c-0.1-2.3-0.5-4.6-1.2-6.8c-0.4-1.1-0.9-2.2-1.6-3c-0.7-0.9-1.7-1.6-2.8-1.6c-1.1,0-2.1,0.7-3,1.4c-0.9,0.7-1.6,1.6-2.3,2.6
			c-1.4,1.9-2.5,3.9-3.7,5.9l-3.6,6c-1.2,2-2.4,4-3.7,5.9c-0.6,1-1.3,1.9-2,2.9c-0.4,0.5-0.7,0.9-1.2,1.3c-0.1,0.1-0.3,0.2-0.5,0.2
			c-0.2,0-0.4-0.1-0.5-0.3c-0.2-0.3-0.1-0.8,0.3-0.9l0,0C2.2,43,2.8,42,3.5,41c0.6-0.9,1.3-1.9,1.9-2.9c1.2-1.9,2.4-3.9,3.6-5.8
			l3.5-5.9c1.1-2,2.3-4,3.8-5.7c0.7-0.9,1.6-1.7,2.6-2.3c1-0.6,2.1-1,3.3-0.9c1.2,0.1,2.2,0.8,3,1.7c0.8,0.9,1.3,1.9,1.7,3
			c0.9,2.1,1.3,4.4,1.5,6.7c0.2,2.3,0.2,4.6,0,6.9c-0.3,4.6-1.2,9.1-2.6,13.5c-0.7,2.2-1.5,4.3-2.4,6.4c-0.9,2.1-1.7,4.3-2,6.5
			c-0.2,1.1-0.2,2.3-0.1,3.4c0.2,1.1,0.7,2.2,1.6,2.9c0.9,0.7,2.1,1,3.2,1.1c1.1,0,2.3-0.1,3.4-0.4c2.2-0.5,4.3-1.5,6.3-2.7
			c2-1.2,3.7-2.7,5.2-4.5c-1.4,1.8-3.2,3.3-5.2,4.5c-2,1.2-4.1,2.2-6.3,2.7c-1.1,0.3-2.3,0.4-3.4,0.4c-1.1,0-2.3-0.4-3.2-1.1
			c-0.9-0.7-1.4-1.8-1.6-3c-0.2-1.1-0.1-2.3,0-3.4c0.4-2.3,1.1-4.4,2-6.6c0.9-2.1,1.7-4.2,2.4-6.4c1.4-4.4,2.3-8.9,2.6-13.4
			c0.1-2.3,0.1-4.6-0.1-6.8c-0.2-2.3-0.6-4.5-1.5-6.7c-0.4-1.1-1-2.1-1.7-2.9c-0.7-0.8-1.8-1.5-2.9-1.6c-1.1-0.1-2.2,0.3-3.2,0.9
			c-1,0.6-1.8,1.4-2.5,2.3c-1.5,1.7-2.6,3.7-3.8,5.7l-3.5,5.9c-1.2,2-2.4,3.9-3.6,5.9c-0.6,1-1.2,1.9-1.9,2.9
			c-0.7,0.9-1.3,1.9-2.1,2.8l0,0l0,0c-0.2,0.1-0.3,0.4-0.2,0.5c0.1,0.1,0.2,0.2,0.3,0.2c0.1,0,0.2-0.1,0.3-0.2
			c0.4-0.3,0.8-0.8,1.1-1.3c0.7-0.9,1.3-1.9,2-2.9c1.3-1.9,2.5-3.9,3.7-5.9l3.6-6c1.2-2,2.3-4.1,3.7-6c0.7-0.9,1.5-1.8,2.4-2.6
			c0.9-0.8,2-1.4,3.2-1.5c1.3,0,2.4,0.7,3.1,1.7c0.7,0.9,1.2,2,1.6,3.1c0.8,2.2,1.1,4.6,1.2,6.9c0.1,2.3,0.1,4.7-0.2,7
			c-0.5,4.7-1.5,9.2-3,13.7c-0.7,2.2-1.7,4.4-2.5,6.5c-0.8,2.2-1.4,4.4-1.4,6.7c0,1.1,0.2,2.3,0.6,3.3c0.5,1,1.3,1.8,2.3,2.3
			c2.1,1,4.5,0.7,6.7,0.1c2.2-0.6,4.4-1.6,6.3-2.8c2-1.2,3.7-2.7,5.2-4.5L41.9,62.7z"/>
	</g>
</g>
</svg>
